<?xml version="1.0" encoding="UTF-8"?>
<!DOCTYPE svg PUBLIC "-//W3C//DTD SVG 1.1//EN" "http://www.w3.org/Graphics/SVG/1.1/DTD/svg11.dtd">
<!-- Creator: CorelDRAW -->
<svg xmlns="http://www.w3.org/2000/svg" xml:space="preserve" width="512px" height="512px" version="1.1" style="shape-rendering:geometricPrecision; text-rendering:geometricPrecision; image-rendering:optimizeQuality; fill-rule:evenodd; clip-rule:evenodd"
viewBox="0 0 512 512"
 xmlns:xlink="http://www.w3.org/1999/xlink">
 <defs>
  <style type="text/css">
   <![CDATA[
    .fil0 {fill:#546F7A}
    .fil1 {fill:#8EA0A8}
   ]]>
  </style>
 </defs>
 <g id="Layer_x0020_1">
  <metadata id="CorelCorpID_0Corel-Layer"/>
  <g id="_343447696">
   <path class="fil0" d="M256 512c-81,0 -155,-40 -197,-108 -29,-48 -41,-103 -37,-162 5,-54 25,-106 57,-148l-37 -37c-3,-3 -3,-7 0,-10l45 -45c3,-3 7,-3 10,0l85 85c1,1 2,3 2,5 0,2 -1,4 -2,5l-23 22c-64,63 -79,170 -34,243 28,45 77,72 131,72 54,0 103,-27 131,-72 45,-73 30,-180 -34,-243l-23 -22c-1,-1 -2,-3 -2,-5 0,-2 1,-4 2,-5l85 -85c3,-3 7,-3 10,0l45 45c3,3 3,7 0,10l-37 37c32,42 52,94 57,148 4,58 -8,114 -37,162 -42,68 -116,108 -197,108z"/>
   <path class="fil1" d="M122 110c-11,0 -20,-9 -20,-20 0,-11 9,-20 20,-20 12,0 21,9 21,20 0,11 -9,20 -21,20z"/>
   <path class="fil1" d="M386 110c-11,0 -20,-9 -20,-20 0,-11 9,-20 20,-20 11,0 20,9 20,20 0,11 -9,20 -20,20z"/>
   <path class="fil1" d="M451 287c-11,0 -20,-9 -20,-20 0,-11 9,-20 20,-20 12,0 20,8 20,20 0,11 -9,20 -20,20z"/>
   <path class="fil1" d="M59 287c-11,0 -20,-9 -20,-20 0,-11 9,-20 20,-20 11,0 20,9 20,20 0,11 -9,20 -20,20z"/>
   <path class="fil1" d="M256 494c-11,0 -20,-9 -20,-20 0,-11 9,-20 20,-20 11,0 20,9 20,20 0,11 -9,20 -20,20z"/>
  </g>
 </g>
</svg>
